<?xml version="1.0" encoding="utf-8"?>
<!-- Generator: Adobe Illustrator 23.0.0, SVG Export Plug-In . SVG Version: 6.00 Build 0)  -->
<svg version="1.1" id="Camada_1" xmlns="http://www.w3.org/2000/svg" xmlns:xlink="http://www.w3.org/1999/xlink" x="0px" y="0px"
	 viewBox="0 0 140 35" style="enable-background:new 0 0 140 35;" xml:space="preserve">
<style type="text/css">
	.st0{fill:#FFFFFF;}
</style>
<g>
	<path class="st0" d="M16.9,1.1c0.3,0,0.6,0.1,0.9,0.1c1.5,0.1,2.9,0.5,4.2,1.1c1.4,0.6,2.7,1.5,3.9,2.6c1.4,1.3,2.7,3,3.6,4.7
		c0.8,1.6,1.3,3.3,1.7,5.1c0.2,1.2,0.2,2.4,0.2,3.5c-0.1,2-0.4,3.9-1.1,5.7c-0.6,1.6-1.4,3.1-2.4,4.3c-1.4,1.9-3.1,3.3-5.1,4.3
		c-0.5,0.3-1,0.5-1.5,0.7c-0.2,0.1-0.4,0.1-0.7,0c-0.3-0.1-0.5-0.4-0.5-0.9c0-1.5,0-3,0-4.5c0-0.8-0.1-1.5-0.4-2.2
		c-0.2-0.3-0.3-0.6-0.5-0.9c0.2,0,0.5-0.1,0.7-0.1c1.2-0.2,2.3-0.6,3.3-1.3c1.3-1,2.2-2.5,2.5-4.1c0.2-1,0.2-2,0.2-3.1
		c-0.1-1.5-0.5-2.8-1.4-3.9c-0.1-0.1-0.1-0.2-0.1-0.3c0.4-1.4,0.3-2.8-0.2-4.1c0-0.1-0.2-0.1-0.2-0.1c-0.7-0.1-1.3,0.1-1.9,0.5
		c-0.7,0.4-1.2,0.8-1.9,1.2c-0.1,0.1-0.2,0.1-0.3,0.1c-1.2-0.4-2.6-0.6-3.8-0.5c-1.1,0-2.2,0.2-3.3,0.5c-0.2,0-0.2,0-0.3-0.1
		C11.8,8.9,10.9,8.3,9.9,8C9.6,7.9,9.2,7.9,8.9,7.8c-0.2,0-0.2,0-0.2,0.2C8.2,9.4,8,10.7,8.4,12.1c0.1,0.2,0,0.2-0.1,0.3
		c-0.5,0.7-0.9,1.4-1.2,2.3c-0.2,1-0.3,2.1-0.2,3.1c0.1,0.9,0.2,1.8,0.5,2.7c0.7,2,1.9,3.2,3.6,3.9c0.8,0.3,1.7,0.5,2.5,0.6h0.1
		c-0.1,0.2-0.2,0.3-0.3,0.4c-0.3,0.5-0.5,1-0.6,1.6c0,0.2-0.1,0.3-0.2,0.4c-0.8,0.3-1.7,0.5-2.6,0.1c-0.7-0.3-1.1-0.8-1.5-1.4
		c-0.4-0.7-0.8-1.3-1.5-1.7c-0.4-0.2-0.8-0.3-1.3-0.2c-0.2,0.1-0.3,0.3-0.2,0.5c0.1,0.2,0.2,0.3,0.4,0.4c0.6,0.3,0.9,0.9,1.2,1.5
		c0.2,0.4,0.4,0.8,0.6,1.2c0.4,1,1.2,1.6,2.1,1.9c0.7,0.2,1.5,0.2,2.3,0.1c0.2,0,0.4-0.1,0.6-0.1c0,0.1,0,0.1,0,0.2
		c0,0.9,0,1.8,0,2.7c0,0.8-0.5,1.1-1.1,0.9c-1.5-0.6-2.9-1.4-4.2-2.5c-1.9-1.7-3.5-3.7-4.5-6.2c-0.6-1.5-1-3-1.2-4.5
		c-0.1-1.1-0.1-2.4,0-3.5c0.2-2,0.6-3.8,1.2-5.7c0.8-2.1,2-3.8,3.5-5.4c1.7-1.8,3.8-3.1,6.1-3.8c0.9-0.3,1.8-0.5,2.7-0.5
		c0.2,0,0.6-0.1,0.8-0.1C16.4,1.1,16.6,1.1,16.9,1.1z"/>
	<path class="st0" d="M38,16.8c0.1-0.8,0.1-1.6,0.2-2.4c0.2-2.9,0.7-5.6,2.1-8.1c1.4-2.8,3.6-4.2,6.2-4.9c2.2-0.5,4.2-0.4,6.4-0.1
		c1.2,0.2,2.2,0.4,3.3,1c0.2,0.1,0.3,0.2,0.5,0.3C56.9,2.7,57,3,56.9,3.3c-0.3,1.6-0.7,3.1-0.9,4.6c-0.2,0.3-0.3,0.4-0.7,0.3
		c-1.7-0.8-3.6-0.9-5.4-0.8c-3.2,0.1-5.1,1.9-5.9,5.5c-0.7,3.4-0.7,6.9,0.2,10.2c0.6,2.2,1.8,3.7,3.7,4.1c0.9,0.2,1.8,0.1,2.8,0.1
		c0.4,0,0.7-0.1,1.2-0.2c0.1,0,0.2-0.2,0.2-0.3c0-2,0-3.9,0-5.9c-0.2,0-0.3,0-0.4,0c-0.9,0-1.8,0-2.7,0c-0.4,0-0.6-0.2-0.6-0.7
		c0-1.5,0-3.1,0-4.5c0-0.5,0.1-0.6,0.6-0.6c2.7,0,5.5,0,8.2,0c0.5,0,0.5,0.1,0.5,0.6c0,5,0,10,0,15.1c0,0.3-0.1,0.5-0.3,0.7
		c-1.7,1.2-3.6,1.8-5.5,2.1c-0.1,0-0.2,0.1-0.3,0.1c-1.1,0-2.2,0-3.2,0c-0.1,0-0.2-0.1-0.3-0.1c-0.8-0.2-1.7-0.3-2.5-0.5
		c-2-0.6-3.7-1.8-5-3.6C39,27,38.4,24,38.1,21C38,20.2,38,19.5,38,18.7C38,18,38,17.3,38,16.8z"/>
	<path class="st0" d="M131.7,33.6c-0.5-0.1-1-0.2-1.5-0.3c-1.2-0.3-2.2-0.9-3.2-1.9c-0.1,0.4-0.1,0.7-0.2,1c0,0.5-0.2,0.7-0.7,0.6
		c-1,0-1.9,0-2.9,0c-0.5,0-0.6-0.1-0.6-0.7c0-4.2,0-8.4,0-12.6c0-5.5,0-11.1,0-16.6c0-0.8,0-0.8,0.7-0.8c1.4,0,2.8,0,4.2,0
		c0.7,0,0.7,0,0.7,0.8c0,3.1,0,6.1,0,9.2c0,0.2,0,0.3,0,0.6c0.4-0.2,0.7-0.4,1-0.6c2.1-1,4.2-1.2,6.4-0.2c1.7,0.8,2.7,2.4,3.2,4.3
		c0.2,1.1,0.4,2.2,0.6,3.2c0,0.1,0.1,0.2,0.1,0.3c0,1.5,0,2.9,0,4.3c0,0.1-0.1,0.3-0.1,0.4c-0.2,1.4-0.3,2.8-0.7,4
		c-0.6,2.3-1.7,3.9-3.7,4.6c-0.4,0.1-0.9,0.2-1.4,0.3C133,33.6,132.3,33.6,131.7,33.6z M128.2,22.5c0,1.5,0,2.9,0,4.3
		c0,0.4,0.2,0.6,0.4,0.8c0.9,0.5,1.8,0.7,2.8,0.7c1.2,0,2-0.7,2.3-2.1c0.4-1.7,0.4-3.4,0.2-5.2c-0.1-0.9-0.2-1.7-0.5-2.6
		c-0.2-0.9-0.9-1.4-1.7-1.5c-1.2-0.2-2.2,0.1-3.3,0.7c-0.2,0.1-0.3,0.3-0.3,0.6C128.2,19.6,128.2,21.1,128.2,22.5z"/>
	<path class="st0" d="M109,33.6c-0.4-0.1-0.9-0.2-1.3-0.4c-2.2-0.6-3.3-2.4-3.6-4.9c-0.1-0.9-0.2-1.7-0.2-2.6c0-4.2,0-8.6,0-12.8
		c0-0.8,0.1-0.9,0.7-0.9c1.4,0,2.8,0,4.2,0c0.5,0,0.7,0.1,0.7,0.8c0,4.3,0,8.7,0,12.9c0,1.8,0.7,2.5,2.2,2.5c0.9,0,1.8-0.3,2.7-0.8
		c0.2-0.2,0.3-0.4,0.3-0.7c0-4.6,0-9.3,0-13.8c0-0.8,0.1-0.8,0.7-0.8c1.4,0,2.7,0,4.1,0c0.5,0,0.6,0.1,0.6,0.7c0,6.5,0,13,0,19.5
		c0,0.6-0.1,0.7-0.6,0.7c-0.9,0-1.7,0-2.7,0c-0.4,0-0.6-0.1-0.6-0.6c0-0.3-0.1-0.5-0.2-0.8c-0.3,0.2-0.7,0.4-1,0.6
		c-1.1,0.7-2.2,1.1-3.5,1.3c-0.1,0-0.1,0.1-0.2,0.1C110.8,33.6,109.9,33.6,109,33.6z"/>
	<path class="st0" d="M76.8,33.6c-0.6-0.1-1.2-0.2-1.8-0.4c-2.2-0.6-3.5-2.3-3.7-4.9c-0.1-0.8-0.2-1.6-0.2-2.4c0-2.7,0-5.3,0-8
		c0-0.4-0.1-0.5-0.4-0.5c-0.7,0-1.3,0-2,0c-0.3,0-0.5-0.2-0.5-0.6c0-1.1,0-2.3,0-3.3c0-0.4,0.2-0.6,0.4-0.7c0.7-0.2,1.4-0.4,2.1-0.6
		c0.3-0.1,0.4-0.2,0.4-0.6c0-1.7,0-3.3,0-5.1c0-0.6,0.1-0.6,0.5-0.6c1.5,0,3,0,4.4,0c0.3,0,0.5,0.1,0.5,0.6c0,1.6,0,3.2,0,4.8
		c0,0.6,0,0.6,0.5,0.6c1,0,2,0,3,0c0.4,0,0.5,0.2,0.5,0.6c0,1.4,0,2.9,0,4.2c0,0.4-0.2,0.6-0.5,0.6c-1,0-2,0-3,0
		c-0.4,0-0.5,0.2-0.5,0.6c0,2.5,0,5,0,7.5c0,1.9,0.9,2.5,2.2,2.6c0.5,0,0.9,0,1.4-0.1c0.3,0,0.5,0.1,0.5,0.6c0,1.3,0,2.5,0,3.7
		c0,0.3-0.1,0.5-0.4,0.6c-0.7,0.1-1.2,0.3-1.9,0.4c-0.1,0-0.2,0.1-0.3,0.1C77.5,33.6,77.2,33.6,76.8,33.6z"/>
	<path class="st0" d="M88.5,19.8c0,0.3,0,0.4,0,0.6c0,3.9,0,7.9,0,11.8c0,0.7-0.1,0.8-0.7,0.8c-1.4,0-2.8,0-4.3,0
		c-0.5,0-0.6-0.1-0.6-0.7c0-9.8,0-19.6,0-29.4c0-0.6,0.1-0.7,0.6-0.7c1.5,0,2.9,0,4.4,0c0.5,0,0.6,0.1,0.6,0.8c0,3.3,0,6.7,0,10.1
		c0,0.2,0,0.4,0,0.6c0.2,0,0.2,0,0.4,0c2.2,0,4.5,0,6.7,0c0.3,0,0.4-0.1,0.4-0.5c0-3.4,0-6.8,0-10.2c0-0.7,0.1-0.8,0.7-0.8
		c1.5,0,2.9,0,4.4,0c0.5,0,0.6,0.1,0.6,0.7c0,9.8,0,19.6,0,29.4c0,0.6-0.1,0.7-0.6,0.7c-1.5,0-2.9,0-4.4,0c-0.5,0-0.6-0.1-0.6-0.7
		c0-4,0-8.1,0-12c0-0.4-0.1-0.6-0.5-0.6c-2.2,0-4.4,0-6.6,0C88.8,19.8,88.6,19.8,88.5,19.8z"/>
	<path class="st0" d="M66.3,22.5c0,3.2,0,6.4,0,9.6c0,0.8-0.1,0.9-0.8,0.9c-1.3,0-2.7,0-3.9,0c-0.7,0-0.8-0.2-0.8-1
		c0-6.4,0-12.8,0-19.2c0-0.6,0.2-0.8,0.7-0.8c1.4,0,2.9,0,4.3,0c0.5,0,0.6,0.1,0.6,0.7C66.3,16,66.3,19.2,66.3,22.5z"/>
	<path class="st0" d="M63.6,10.3c-1.7,0-3.1-1.6-3.1-3.6c0-2,1.4-3.6,3.1-3.7c1.7,0,3.2,1.7,3.2,3.7C66.6,8.7,65.3,10.3,63.6,10.3z"
		/>
</g>
</svg>
